PathFileType	4	(X/Y/Z)	s01c0001.trc
DataRate	CameraRate	NumFrames	NumMarkers	Units	OrigDataRate	OrigDataStartFrame	OrigNumFrames
200	200	4	49	mm	200	1500	2000
Frame#	Time	racr			lacr			c7			jug			rlel			rdr			llel			ldr			s2			lic			ric			lasi			rasi			rpsi			lpsi			rgt			lgt			rth1			rth2			rth3			rth4			rlfc			rmfc			rsh1			rsh2			rsh3			rsh4			rlmal			rmmal			rcal			rtoe			rmt5			rmt1			lth1			lth2			lth4			lth3			llfc			lmfc			lsh1			lsh2			lsh3			lsh4			llmal			lmmal			lcal			ltoe			lmt1			lmt5			
		X1	Y1	Z1	X2	Y2	Z2	X3	Y3	Z3	X4	Y4	Z4	X5	Y5	Z5	X6	Y6	Z6	X7	Y7	Z7	X8	Y8	Z8	X9	Y9	Z9	X10	Y10	Z10	X11	Y11	Z11	X12	Y12	Z12	X13	Y13	Z13	X14	Y14	Z14	X15	Y15	Z15	X16	Y16	Z16	X17	Y17	Z17	X18	Y18	Z18	X19	Y19	Z19	X20	Y20	Z20	X21	Y21	Z21	X22	Y22	Z22	X23	Y23	Z23	X24	Y24	Z24	X25	Y25	Z25	X26	Y26	Z26	X27	Y27	Z27	X28	Y28	Z28	X29	Y29	Z29	X30	Y30	Z30	X31	Y31	Z31	X32	Y32	Z32	X33	Y33	Z33	X34	Y34	Z34	X35	Y35	Z35	X36	Y36	Z36	X37	Y37	Z37	X38	Y38	Z38	X39	Y39	Z39	X40	Y40	Z40	X41	Y41	Z41	X42	Y42	Z42	X43	Y43	Z43	X44	Y44	Z44	X45	Y45	Z45	X46	Y46	Z46	X47	Y47	Z47	X48	Y48	Z48	X49	Y49	Z49	
1500	7.5000	503.003143	1501.661743	-347.879181	310.492737	1482.710693	-686.306763	383.966522	1530.868286	-495.692810	513.856812	1459.098633	-566.263184	563.856873	1253.997437	-183.519043	723.235168	1057.971191	-72.724365	212.490555	1210.038940	-779.699463	216.188461	1003.146851	-949.908875	342.801514	1020.502197	-459.078796	370.914429	1089.821777	-676.829651	547.343933	1061.471680	-392.623535	422.689087	1025.501953	-679.269409	575.457458	1013.940857	-444.982391	385.248535	1050.997803	-421.712860	329.638000	1054.532593	-511.682861	518.859070	927.914185	-358.928375	338.869598	922.718384	-682.020630	539.541748	808.492371	-349.047729	544.657471	726.418579	-359.039001	537.818909	636.902405	-374.325623	582.307800	730.105835	-398.745483	506.637695	517.151978	-387.288757	446.108307	493.130127	-475.876617	491.953217	401.640228	-338.337128	486.423126	317.336670	-343.484283	470.333527	229.189667	-352.489166	511.228790	317.010437	-399.895294	447.316071	99.083771	-371.426239	447.679016	122.430328	-459.236603	393.729095	67.864204	-415.827972	651.949768	91.558388	-492.331207	581.518494	50.462784	-391.212585	561.332642	62.196735	-504.577911	324.473419	803.029053	-688.830811	342.342499	717.053528	-688.978271	392.264130	727.096680	-708.455078	358.276794	633.856445	-676.470337	365.824982	520.330627	-653.438599	393.636475	489.516235	-546.317932	306.952606	410.204132	-665.903564	304.869873	323.533203	-657.104736	305.508484	238.610825	-639.261292	367.553375	322.784821	-654.845032	317.515472	105.001297	-619.876404	382.836212	116.200264	-558.610474	304.878479	64.573418	-560.182617	543.508118	96.795738	-692.371765	498.535126	65.669258	-617.244568	426.230713	57.321388	-707.083130	
1501	7.5050	503.013519	1501.670410	-347.910339	310.497894	1482.703613	-686.341309	383.998932	1530.854980	-495.696106	513.872559	1459.104248	-566.314575	563.882874	1254.020264	-183.553909	723.278259	1058.016846	-72.732735	212.509888	1210.033569	-779.738220	216.226349	1003.127686	-949.945068	342.822845	1020.499512	-459.094727	370.930115	1089.822998	-676.844849	547.358032	1061.467773	-392.633850	422.715881	1025.500244	-679.285522	575.468018	1013.940552	-444.987244	385.273834	1050.984619	-421.723694	329.649811	1054.525879	-511.696533	518.890259	927.910156	-358.942566	338.871674	922.726746	-682.025024	539.534729	808.491821	-349.047241	544.676086	726.409119	-359.068237	537.807922	636.909851	-374.316528	582.304504	730.093994	-398.760803	506.643616	517.136292	-387.280762	446.089111	493.118286	-475.864929	491.963531	401.649780	-338.334229	486.417572	317.343994	-343.476868	470.330231	229.190720	-352.489563	511.204956	317.014801	-399.895844	447.305725	99.093246	-371.436127	447.676849	122.434601	-459.238861	393.719147	67.869934	-415.826508	651.950134	91.560143	-492.329956	581.508606	50.471607	-391.196106	561.332825	62.199116	-504.581116	324.476318	803.036438	-688.835632	342.351227	717.053162	-688.982056	392.269745	727.095764	-708.463135	358.272858	633.856140	-676.470215	365.808411	520.335083	-653.457153	393.646393	489.501526	-546.346436	306.952637	410.209991	-665.913574	304.870789	323.526031	-657.099670	305.512054	238.612518	-639.262024	367.549866	322.785156	-654.852661	317.502045	105.003830	-619.872864	382.762482	116.266602	-558.536926	304.868866	64.563858	-560.195435	543.500488	96.804070	-692.372986	498.527222	65.677925	-617.243103	426.111389	57.405899	-707.062683	
1502	7.5100	503.023987	1501.677979	-347.936920	310.492188	1482.674927	-686.352173	383.999603	1530.872803	-495.692078	513.886780	1459.095703	-566.328674	563.927490	1254.027588	-183.572037	723.309937	1058.044312	-72.748619	212.529739	1210.009521	-779.774902	216.271057	1003.088074	-949.963379	342.835876	1020.494141	-459.115906	370.947510	1089.809082	-676.848877	547.374939	1061.480591	-392.664459	422.713776	1025.508545	-679.300110	575.471436	1013.930359	-444.995636	385.280914	1050.981812	-421.752197	329.682556	1054.524658	-511.703949	518.894104	927.907776	-358.961639	338.882660	922.723267	-682.038879	539.540894	808.498230	-349.049713	544.658325	726.437134	-359.029480	537.807556	636.891968	-374.328888	582.302856	730.090393	-398.754028	506.611725	517.144836	-387.280670	446.098602	493.140167	-475.879730	491.939117	401.648010	-338.334106	486.405426	317.353363	-343.494141	470.302765	229.194809	-352.484314	511.205719	317.012268	-399.884613	447.321655	99.092087	-371.431580	447.674774	122.433578	-459.235596	393.722595	67.876427	-415.836578	651.951355	91.557724	-492.324951	581.481873	50.466267	-391.181061	561.332825	62.199028	-504.581360	324.481476	803.035828	-688.846985	342.354248	717.056458	-688.993042	392.271912	727.092896	-708.468811	358.273956	633.860291	-676.481201	365.803192	520.337524	-653.466675	393.642456	489.494873	-546.335449	306.959473	410.202972	-665.918823	304.871552	323.527405	-657.099426	305.506958	238.617355	-639.259216	367.548279	322.783966	-654.858459	317.508911	105.016113	-619.871338	382.767181	116.267448	-558.543030	304.880615	64.579926	-560.184021	543.500488	96.804077	-692.372925	498.532654	65.683723	-617.240906	426.227448	57.316647	-707.085205	
1503	7.5150	503.040802	1501.693115	-347.967682	310.532379	1482.665161	-686.403931	384.005981	1530.863281	-495.749420	513.878357	1459.080200	-566.358093	563.955322	1254.043579	-183.594528	723.348022	1058.084717	-72.767212	212.557526	1209.995728	-779.796509	216.295578	1003.078186	-949.993530	342.861694	1020.485718	-459.131775	370.947113	1089.814697	-676.881348	547.390381	1061.473267	-392.676147	422.720032	1025.498535	-679.306274	575.485474	1013.925110	-445.008667	385.297760	1051.005615	-421.749390	329.685120	1054.534058	-511.710663	518.902893	927.898621	-358.973541	338.887360	922.717407	-682.047607	539.546509	808.491028	-349.054016	544.665833	726.417480	-359.048828	537.798645	636.877869	-374.317047	582.321594	730.083923	-398.752014	506.631989	517.141113	-387.281799	446.109711	493.130859	-475.879059	491.940796	401.630188	-338.333252	486.410187	317.357208	-343.470886	470.304321	229.199432	-352.481445	511.206696	317.010742	-399.881622	447.303406	99.084717	-371.427094	447.673248	122.431549	-459.235382	393.722595	67.876434	-415.836609	651.949463	91.559219	-492.327911	581.508606	50.471600	-391.196136	561.331299	62.199921	-504.581665	324.491486	803.032532	-688.856628	342.358521	717.054016	-688.988770	392.272583	727.090027	-708.478638	358.290955	633.852539	-676.480591	365.808624	520.335205	-653.455322	393.641418	489.495697	-546.335266	306.947418	410.207672	-665.921326	304.860138	323.529297	-657.113098	305.505249	238.619263	-639.260925	367.547058	322.783417	-654.862915	317.494171	105.004852	-619.872253	382.821747	116.192230	-558.595520	304.878448	64.573395	-560.182678	543.494568	96.797035	-692.376282	498.533051	65.668327	-617.249573	426.130371	57.387974	-707.076111	
